<?xml version="1.0" encoding="UTF-8"?>
<svg id="_Слой_1" data-name="Слой 1" xmlns="http://www.w3.org/2000/svg" viewBox="0 0 16 16">
  <defs>
    <style>
      .cls-1 {
        fill: none;
      }

      .cls-2 {
        fill: #ffdf20;
      }

      .cls-3 {
        fill: #2b7fff;
      }
    </style>
  </defs>
  <g>
    <path class="cls-3" d="m3.42,8.58c.33-.56.82-.99,1.47-1.3.65-.31,1.45-.46,2.41-.46s1.77.15,2.41.46c.65.31,1.14.74,1.47,1.3.33.56.5,1.21.5,1.96s-.17,1.4-.5,1.96c-.33.56-.82,1-1.47,1.3-.65.31-1.45.46-2.41.46s-1.76-.15-2.41-.46c-.65-.31-1.14-.74-1.47-1.3-.33-.56-.5-1.21-.5-1.96s.17-1.41.5-1.96Zm1.39,2.91c.17.27.41.47.72.61.32.14.7.21,1.14.21h1.26c.45,0,.83-.07,1.15-.21.31-.14.55-.35.72-.61.17-.27.25-.58.25-.95s-.08-.69-.25-.95c-.17-.26-.4-.46-.72-.61-.31-.14-.69-.21-1.15-.21h-1.26c-.44,0-.82.07-1.14.21-.32.14-.56.34-.72.61-.17.26-.25.58-.25.95s.08.68.25.95Z"/>
    <path class="cls-2" d="m8.05,2.22v6.55c.4.01.74.08,1.02.21.22.1.4.23.55.39V3.62h2.75v-1.4h-4.32Z"/>
  </g>
  <rect class="cls-1" y="0" width="16" height="16"/>
</svg>