<?xml version="1.0" encoding="UTF-8"?>
<svg id="_Слой_1" data-name="Слой 1" xmlns="http://www.w3.org/2000/svg" viewBox="0 0 48 48">
  <defs>
    <style>
      .cls-1 {
        fill: none;
      }

      .cls-2 {
        fill: #ffdf20;
      }

      .cls-3 {
        fill: #2b7fff;
      }
    </style>
  </defs>
  <g>
    <path class="cls-3" d="m10.26,25.73c.99-1.67,2.47-2.97,4.42-3.89,1.95-.92,4.36-1.38,7.22-1.38s5.3.46,7.24,1.38c1.94.92,3.41,2.22,4.4,3.89.99,1.67,1.49,3.64,1.49,5.89s-.5,4.19-1.49,5.88c-.99,1.69-2.46,2.99-4.4,3.91-1.94.92-4.35,1.38-7.24,1.38s-5.27-.46-7.22-1.38c-1.95-.92-3.43-2.23-4.42-3.91-.99-1.69-1.49-3.64-1.49-5.88s.5-4.22,1.49-5.89Zm4.17,8.73c.5.8,1.22,1.41,2.16,1.84.95.42,2.09.64,3.42.64h3.78c1.36,0,2.5-.21,3.44-.64.93-.42,1.65-1.04,2.15-1.84.5-.8.75-1.75.75-2.84s-.25-2.07-.75-2.86c-.5-.79-1.21-1.39-2.15-1.82-.93-.42-2.08-.64-3.44-.64h-3.78c-1.33,0-2.47.21-3.42.64-.95.42-1.67,1.03-2.16,1.82-.5.79-.75,1.74-.75,2.86s.25,2.04.75,2.84Z"/>
    <path class="cls-2" d="m24.16,6.67v19.64c1.2.04,2.22.24,3.07.63.66.3,1.21.69,1.65,1.17V10.86h8.25v-4.19h-12.97Z"/>
  </g>
  <rect class="cls-1" y="0" width="48" height="48"/>
</svg>