<?xml version="1.0" encoding="UTF-8"?>
<svg id="_Слой_1" data-name="Слой 1" xmlns="http://www.w3.org/2000/svg" viewBox="0 0 256 256">
  <defs>
    <style>
      .cls-1 {
        fill: none;
      }

      .cls-2 {
        fill: #ffdf20;
      }

      .cls-3 {
        fill: #2b7fff;
      }
    </style>
  </defs>
  <g>
    <path class="cls-3" d="m54.71,137.22c5.3-8.93,13.16-15.85,23.58-20.76,10.41-4.91,23.25-7.37,38.52-7.37s28.27,2.46,38.62,7.37c10.35,4.92,18.18,11.84,23.48,20.76,5.3,8.93,7.96,19.41,7.96,31.44s-2.65,22.35-7.96,31.34c-5.31,8.99-13.13,15.95-23.48,20.86-10.35,4.92-23.22,7.37-38.62,7.37s-28.11-2.46-38.52-7.37c-10.42-4.91-18.28-11.87-23.58-20.86-5.31-8.99-7.96-19.44-7.96-31.34s2.65-22.51,7.96-31.44Zm22.22,46.58c2.65,4.27,6.5,7.54,11.55,9.8,5.05,2.27,11.12,3.4,18.24,3.4h20.18c7.24,0,13.36-1.13,18.34-3.4,4.98-2.26,8.8-5.53,11.45-9.8,2.65-4.27,3.98-9.31,3.98-15.14s-1.33-11.03-3.98-15.23c-2.65-4.2-6.47-7.44-11.45-9.7-4.98-2.26-11.09-3.4-18.34-3.4h-20.18c-7.12,0-13.2,1.13-18.24,3.4-5.05,2.27-8.9,5.5-11.55,9.7-2.65,4.21-3.98,9.28-3.98,15.23s1.32,10.87,3.98,15.14Z"/>
    <path class="cls-2" d="m128.87,35.6v104.73c6.38.19,11.84,1.3,16.36,3.36,3.52,1.6,6.44,3.69,8.79,6.26V57.94h44.03v-22.34h-69.18Z"/>
  </g>
  <rect class="cls-1" width="256" height="256"/>
</svg>